%TF.GenerationSoftware,KiCad,Pcbnew,(6.0.9)*%
%TF.CreationDate,2023-01-19T14:06:51+07:00*%
%TF.ProjectId,LC_Sensor_THT,4c435f53-656e-4736-9f72-5f5448542e6b,rev?*%
%TF.SameCoordinates,PX40311b0PY586a470*%
%TF.FileFunction,Copper,L1,Top*%
%TF.FilePolarity,Positive*%
%FSLAX46Y46*%
G04 Gerber Fmt 4.6, Leading zero omitted, Abs format (unit mm)*
G04 Created by KiCad (PCBNEW (6.0.9)) date 2023-01-19 14:06:51*
%MOMM*%
%LPD*%
G01*
G04 APERTURE LIST*
%TA.AperFunction,ComponentPad*%
%ADD10C,2.400000*%
%TD*%
%TA.AperFunction,ComponentPad*%
%ADD11R,2.200000X2.200000*%
%TD*%
%TA.AperFunction,ComponentPad*%
%ADD12O,2.200000X2.200000*%
%TD*%
%TA.AperFunction,ComponentPad*%
%ADD13C,1.600000*%
%TD*%
%TA.AperFunction,ComponentPad*%
%ADD14O,1.600000X1.600000*%
%TD*%
%TA.AperFunction,ComponentPad*%
%ADD15R,1.700000X1.700000*%
%TD*%
%TA.AperFunction,ComponentPad*%
%ADD16O,1.700000X1.700000*%
%TD*%
%TA.AperFunction,Conductor*%
%ADD17C,1.000000*%
%TD*%
%TA.AperFunction,Conductor*%
%ADD18C,0.500000*%
%TD*%
G04 APERTURE END LIST*
D10*
%TO.P,L1,1,1*%
%TO.N,IO1{slash}PA4*%
X8890000Y6350000D03*
%TO.P,L1,2,2*%
%TO.N,Net-(C1-Pad1)*%
X11890000Y6350000D03*
%TD*%
D11*
%TO.P,D2,1,K*%
%TO.N,+3.3V*%
X3810000Y24130000D03*
D12*
%TO.P,D2,2,A*%
%TO.N,IO2{slash}PC5*%
X13970000Y24130000D03*
%TD*%
D13*
%TO.P,C2,1*%
%TO.N,Net-(C2-Pad1)*%
X10000000Y17500000D03*
%TO.P,C2,2*%
%TO.N,IO1{slash}PA4*%
X15000000Y17500000D03*
%TD*%
%TO.P,C1,1*%
%TO.N,Net-(C1-Pad1)*%
X16510000Y13970000D03*
%TO.P,C1,2*%
%TO.N,IO1{slash}PA4*%
X11510000Y13970000D03*
%TD*%
%TO.P,R4,1*%
%TO.N,V_DIV*%
X25400000Y13970000D03*
D14*
%TO.P,R4,2*%
%TO.N,GND*%
X25400000Y3810000D03*
%TD*%
D13*
%TO.P,C3,1*%
%TO.N,IO1{slash}PA4*%
X16510000Y3810000D03*
%TO.P,C3,2*%
%TO.N,GND*%
X21510000Y3810000D03*
%TD*%
D11*
%TO.P,D1,1,K*%
%TO.N,+3.3V*%
X3810000Y29210000D03*
D12*
%TO.P,D1,2,A*%
%TO.N,IO3{slash}PB2*%
X13970000Y29210000D03*
%TD*%
D13*
%TO.P,R3,1*%
%TO.N,+3.3V*%
X25400000Y27940000D03*
D14*
%TO.P,R3,2*%
%TO.N,V_DIV*%
X25400000Y17780000D03*
%TD*%
D10*
%TO.P,L2,1,1*%
%TO.N,IO1{slash}PA4*%
X6350000Y13970000D03*
%TO.P,L2,2,2*%
%TO.N,Net-(C2-Pad1)*%
X3350000Y13970000D03*
%TD*%
D15*
%TO.P,J1,1,Pin_1*%
%TO.N,IO2{slash}PC5*%
X30353000Y22098000D03*
D16*
%TO.P,J1,2,Pin_2*%
%TO.N,IO3{slash}PB2*%
X30353000Y19558000D03*
%TO.P,J1,3,Pin_3*%
%TO.N,+3.3V*%
X30353000Y17018000D03*
%TO.P,J1,4,Pin_4*%
%TO.N,IO1{slash}PA4*%
X30353000Y14478000D03*
%TO.P,J1,5,Pin_5*%
%TO.N,V_DIV*%
X30353000Y11938000D03*
%TO.P,J1,6,Pin_6*%
%TO.N,GND*%
X30353000Y9398000D03*
%TD*%
D13*
%TO.P,R1,1*%
%TO.N,Net-(C1-Pad1)*%
X21590000Y6350000D03*
D14*
%TO.P,R1,2*%
%TO.N,IO3{slash}PB2*%
X21590000Y16510000D03*
%TD*%
D17*
%TO.N,+3.3V*%
X35060000Y17500000D02*
X34578000Y17018000D01*
X35060000Y26440000D02*
X35060000Y17500000D01*
X33560000Y27940000D02*
X35060000Y26440000D01*
X34578000Y17018000D02*
X30353000Y17018000D01*
X25400000Y27940000D02*
X33560000Y27940000D01*
%TO.N,IO2{slash}PC5*%
X21402000Y22098000D02*
X30353000Y22098000D01*
X19370000Y24130000D02*
X21402000Y22098000D01*
X13970000Y24130000D02*
X19370000Y24130000D01*
%TO.N,IO1{slash}PA4*%
X11510000Y13970000D02*
X11510000Y14010000D01*
X11510000Y14010000D02*
X15000000Y17500000D01*
%TO.N,Net-(C2-Pad1)*%
X4000000Y17500000D02*
X10000000Y17500000D01*
X3350000Y16850000D02*
X4000000Y17500000D01*
X3350000Y13970000D02*
X3350000Y16850000D01*
%TO.N,IO3{slash}PB2*%
X26000000Y20500000D02*
X26942000Y19558000D01*
X23500000Y20500000D02*
X26000000Y20500000D01*
X21590000Y18590000D02*
X23500000Y20500000D01*
X26942000Y19558000D02*
X30353000Y19558000D01*
X21590000Y16510000D02*
X21590000Y18590000D01*
X33500000Y21000000D02*
X32058000Y19558000D01*
X32058000Y19558000D02*
X30353000Y19558000D01*
X32000000Y25500000D02*
X33500000Y24000000D01*
X24000000Y25500000D02*
X32000000Y25500000D01*
X20290000Y29210000D02*
X24000000Y25500000D01*
X33500000Y24000000D02*
X33500000Y21000000D01*
X13970000Y29210000D02*
X20290000Y29210000D01*
%TO.N,V_DIV*%
X25400000Y13970000D02*
X25400000Y17780000D01*
X28030000Y13970000D02*
X29500000Y12500000D01*
X25400000Y13970000D02*
X28030000Y13970000D01*
%TO.N,IO1{slash}PA4*%
X29500000Y1500000D02*
X33500000Y5500000D01*
X33500000Y11407296D02*
X30429296Y14478000D01*
X17500000Y1500000D02*
X29500000Y1500000D01*
X33500000Y5500000D02*
X33500000Y11407296D01*
X16510000Y2490000D02*
X17500000Y1500000D01*
X30429296Y14478000D02*
X30353000Y14478000D01*
X16510000Y3810000D02*
X16510000Y2490000D01*
%TO.N,+3.3V*%
X22030000Y31310000D02*
X25400000Y27940000D01*
X3810000Y29210000D02*
X5910000Y31310000D01*
X5910000Y31310000D02*
X22030000Y31310000D01*
%TO.N,Net-(C1-Pad1)*%
X16510000Y11430000D02*
X21590000Y6350000D01*
X16510000Y13970000D02*
X16510000Y11430000D01*
%TO.N,IO1{slash}PA4*%
X9690000Y3810000D02*
X16510000Y3810000D01*
X8890000Y4610000D02*
X9690000Y3810000D01*
X8890000Y6350000D02*
X8890000Y4610000D01*
%TO.N,Net-(C1-Pad1)*%
X11890000Y9350000D02*
X16510000Y13970000D01*
X11890000Y6350000D02*
X11890000Y9350000D01*
%TO.N,IO1{slash}PA4*%
X6350000Y13970000D02*
X11510000Y13970000D01*
X6350000Y8890000D02*
X8890000Y6350000D01*
X6350000Y13970000D02*
X6350000Y8890000D01*
%TO.N,+3.3V*%
X3810000Y24130000D02*
X3810000Y29210000D01*
D18*
%TO.N,GND*%
X30353000Y8763000D02*
X30353000Y9398000D01*
%TD*%
%TA.AperFunction,Conductor*%
%TO.N,GND*%
G36*
X5573841Y32479998D02*
G01*
X5620334Y32426342D01*
X5630438Y32356068D01*
X5600944Y32291488D01*
X5545008Y32255652D01*
X5545302Y32254916D01*
X5541461Y32253380D01*
X5540873Y32253003D01*
X5540007Y32252751D01*
X5533663Y32250908D01*
X5528934Y32248457D01*
X5523831Y32246916D01*
X5441669Y32203230D01*
X5440627Y32202683D01*
X5427690Y32195977D01*
X5358074Y32159892D01*
X5353911Y32156569D01*
X5349204Y32154066D01*
X5344430Y32150172D01*
X5344428Y32150171D01*
X5277105Y32095263D01*
X5276160Y32094500D01*
X5237027Y32063261D01*
X5234536Y32060770D01*
X5233809Y32060120D01*
X5229463Y32056408D01*
X5210588Y32041013D01*
X5195938Y32029065D01*
X5192015Y32024323D01*
X5192013Y32024321D01*
X5166703Y31993727D01*
X5158713Y31984947D01*
X4029171Y30855405D01*
X3966859Y30821379D01*
X3940076Y30818500D01*
X2661866Y30818500D01*
X2599684Y30811745D01*
X2463295Y30760615D01*
X2346739Y30673261D01*
X2259385Y30556705D01*
X2208255Y30420316D01*
X2201500Y30358134D01*
X2201500Y28061866D01*
X2208255Y27999684D01*
X2259385Y27863295D01*
X2346739Y27746739D01*
X2463295Y27659385D01*
X2599684Y27608255D01*
X2661866Y27601500D01*
X2675500Y27601500D01*
X2743621Y27581498D01*
X2790114Y27527842D01*
X2801500Y27475500D01*
X2801500Y25864500D01*
X2781498Y25796379D01*
X2727842Y25749886D01*
X2675500Y25738500D01*
X2661866Y25738500D01*
X2599684Y25731745D01*
X2463295Y25680615D01*
X2346739Y25593261D01*
X2259385Y25476705D01*
X2208255Y25340316D01*
X2201500Y25278134D01*
X2201500Y22981866D01*
X2208255Y22919684D01*
X2259385Y22783295D01*
X2346739Y22666739D01*
X2463295Y22579385D01*
X2599684Y22528255D01*
X2661866Y22521500D01*
X4958134Y22521500D01*
X5020316Y22528255D01*
X5156705Y22579385D01*
X5273261Y22666739D01*
X5360615Y22783295D01*
X5411745Y22919684D01*
X5418500Y22981866D01*
X5418500Y25278134D01*
X5411745Y25340316D01*
X5360615Y25476705D01*
X5273261Y25593261D01*
X5156705Y25680615D01*
X5020316Y25731745D01*
X4958134Y25738500D01*
X4944500Y25738500D01*
X4876379Y25758502D01*
X4829886Y25812158D01*
X4818500Y25864500D01*
X4818500Y27475500D01*
X4838502Y27543621D01*
X4892158Y27590114D01*
X4944500Y27601500D01*
X4958134Y27601500D01*
X5020316Y27608255D01*
X5156705Y27659385D01*
X5273261Y27746739D01*
X5360615Y27863295D01*
X5411745Y27999684D01*
X5418500Y28061866D01*
X5418500Y29340075D01*
X5438502Y29408196D01*
X5455405Y29429170D01*
X6290830Y30264595D01*
X6353142Y30298621D01*
X6379925Y30301500D01*
X12527389Y30301500D01*
X12595510Y30281498D01*
X12642003Y30227842D01*
X12652107Y30157568D01*
X12634822Y30109666D01*
X12532384Y29942502D01*
X12530491Y29937932D01*
X12530489Y29937928D01*
X12437389Y29713164D01*
X12435495Y29708591D01*
X12376391Y29462403D01*
X12356526Y29210000D01*
X12376391Y28957597D01*
X12377544Y28952794D01*
X12377546Y28952784D01*
X12397077Y28871433D01*
X12435495Y28711409D01*
X12437388Y28706838D01*
X12437389Y28706836D01*
X12446653Y28684472D01*
X12532384Y28477498D01*
X12664672Y28261624D01*
X12829102Y28069102D01*
X13021624Y27904672D01*
X13237498Y27772384D01*
X13242068Y27770491D01*
X13242072Y27770489D01*
X13466836Y27677389D01*
X13471409Y27675495D01*
X13538513Y27659385D01*
X13712784Y27617546D01*
X13712790Y27617545D01*
X13717597Y27616391D01*
X13970000Y27596526D01*
X14222403Y27616391D01*
X14227210Y27617545D01*
X14227216Y27617546D01*
X14401487Y27659385D01*
X14468591Y27675495D01*
X14473164Y27677389D01*
X14697928Y27770489D01*
X14697932Y27770491D01*
X14702502Y27772384D01*
X14918376Y27904672D01*
X15110898Y28069102D01*
X15186253Y28157331D01*
X15245704Y28196140D01*
X15282064Y28201500D01*
X19820075Y28201500D01*
X19888196Y28181498D01*
X19909170Y28164595D01*
X23243145Y24830621D01*
X23252247Y24820478D01*
X23275968Y24790975D01*
X23314456Y24758680D01*
X23318075Y24755522D01*
X23319890Y24753876D01*
X23322075Y24751691D01*
X23324455Y24749736D01*
X23324465Y24749727D01*
X23355236Y24724451D01*
X23356251Y24723609D01*
X23427474Y24663846D01*
X23432148Y24661277D01*
X23436261Y24657898D01*
X23490919Y24628591D01*
X23518047Y24614045D01*
X23519177Y24613432D01*
X23600787Y24568567D01*
X23605869Y24566955D01*
X23610563Y24564438D01*
X23699531Y24537238D01*
X23700559Y24536918D01*
X23789306Y24508765D01*
X23794602Y24508171D01*
X23799698Y24506613D01*
X23892257Y24497210D01*
X23893393Y24497089D01*
X23927008Y24493319D01*
X23939730Y24491892D01*
X23939734Y24491892D01*
X23943227Y24491500D01*
X23946754Y24491500D01*
X23947739Y24491445D01*
X23953419Y24490998D01*
X23982825Y24488011D01*
X23990337Y24487248D01*
X23990339Y24487248D01*
X23996462Y24486626D01*
X24042108Y24490941D01*
X24053967Y24491500D01*
X31530074Y24491500D01*
X31598195Y24471498D01*
X31619169Y24454596D01*
X32454595Y23619171D01*
X32488620Y23556858D01*
X32491500Y23530075D01*
X32491500Y21469926D01*
X32471498Y21401805D01*
X32454596Y21380831D01*
X31677171Y20603405D01*
X31614858Y20569380D01*
X31588075Y20566500D01*
X31517856Y20566500D01*
X31449735Y20586502D01*
X31403242Y20640158D01*
X31393138Y20710432D01*
X31422632Y20775012D01*
X31449953Y20797054D01*
X31449705Y20797385D01*
X31559081Y20879358D01*
X31566261Y20884739D01*
X31653615Y21001295D01*
X31704745Y21137684D01*
X31711500Y21199866D01*
X31711500Y22996134D01*
X31704745Y23058316D01*
X31653615Y23194705D01*
X31566261Y23311261D01*
X31449705Y23398615D01*
X31313316Y23449745D01*
X31251134Y23456500D01*
X29454866Y23456500D01*
X29392684Y23449745D01*
X29256295Y23398615D01*
X29139739Y23311261D01*
X29052385Y23194705D01*
X29049233Y23186297D01*
X29044923Y23178425D01*
X29043259Y23179336D01*
X29007337Y23131510D01*
X28940776Y23106807D01*
X28931991Y23106500D01*
X21871925Y23106500D01*
X21803804Y23126502D01*
X21782830Y23143405D01*
X20126855Y24799379D01*
X20117753Y24809522D01*
X20097897Y24834218D01*
X20094032Y24839025D01*
X20055578Y24871292D01*
X20051931Y24874472D01*
X20050119Y24876115D01*
X20047925Y24878309D01*
X20014651Y24905642D01*
X20013853Y24906304D01*
X19942526Y24966154D01*
X19937856Y24968722D01*
X19933739Y24972103D01*
X19851914Y25015977D01*
X19850755Y25016606D01*
X19774619Y25058462D01*
X19774611Y25058465D01*
X19769213Y25061433D01*
X19764131Y25063045D01*
X19759437Y25065562D01*
X19670469Y25092762D01*
X19669441Y25093082D01*
X19580694Y25121235D01*
X19575398Y25121829D01*
X19570302Y25123387D01*
X19477743Y25132790D01*
X19476607Y25132911D01*
X19442992Y25136681D01*
X19430270Y25138108D01*
X19430266Y25138108D01*
X19426773Y25138500D01*
X19423246Y25138500D01*
X19422261Y25138555D01*
X19416581Y25139002D01*
X19387175Y25141989D01*
X19379663Y25142752D01*
X19379661Y25142752D01*
X19373538Y25143374D01*
X19331259Y25139377D01*
X19327891Y25139059D01*
X19316033Y25138500D01*
X15282064Y25138500D01*
X15213943Y25158502D01*
X15186253Y25182669D01*
X15114106Y25267142D01*
X15110898Y25270898D01*
X14918376Y25435328D01*
X14702502Y25567616D01*
X14697932Y25569509D01*
X14697928Y25569511D01*
X14473164Y25662611D01*
X14473162Y25662612D01*
X14468591Y25664505D01*
X14383968Y25684821D01*
X14227216Y25722454D01*
X14227210Y25722455D01*
X14222403Y25723609D01*
X13970000Y25743474D01*
X13717597Y25723609D01*
X13712790Y25722455D01*
X13712784Y25722454D01*
X13556032Y25684821D01*
X13471409Y25664505D01*
X13466838Y25662612D01*
X13466836Y25662611D01*
X13242072Y25569511D01*
X13242068Y25569509D01*
X13237498Y25567616D01*
X13021624Y25435328D01*
X12829102Y25270898D01*
X12664672Y25078376D01*
X12532384Y24862502D01*
X12530491Y24857932D01*
X12530489Y24857928D01*
X12451738Y24667806D01*
X12435495Y24628591D01*
X12421323Y24569559D01*
X12397781Y24471498D01*
X12376391Y24382403D01*
X12356526Y24130000D01*
X12376391Y23877597D01*
X12435495Y23631409D01*
X12437388Y23626838D01*
X12437389Y23626836D01*
X12511892Y23446971D01*
X12532384Y23397498D01*
X12664672Y23181624D01*
X12829102Y22989102D01*
X13021624Y22824672D01*
X13237498Y22692384D01*
X13242068Y22690491D01*
X13242072Y22690489D01*
X13312401Y22661358D01*
X13471409Y22595495D01*
X13538513Y22579385D01*
X13712784Y22537546D01*
X13712790Y22537545D01*
X13717597Y22536391D01*
X13970000Y22516526D01*
X14222403Y22536391D01*
X14227210Y22537545D01*
X14227216Y22537546D01*
X14401487Y22579385D01*
X14468591Y22595495D01*
X14627599Y22661358D01*
X14697928Y22690489D01*
X14697932Y22690491D01*
X14702502Y22692384D01*
X14918376Y22824672D01*
X15110898Y22989102D01*
X15186253Y23077331D01*
X15245704Y23116140D01*
X15282064Y23121500D01*
X18900075Y23121500D01*
X18968196Y23101498D01*
X18989170Y23084595D01*
X20645145Y21428621D01*
X20654247Y21418478D01*
X20677968Y21388975D01*
X20682696Y21385008D01*
X20716421Y21356709D01*
X20720069Y21353528D01*
X20721881Y21351885D01*
X20724075Y21349691D01*
X20757349Y21322358D01*
X20758147Y21321696D01*
X20829474Y21261846D01*
X20834144Y21259278D01*
X20838261Y21255897D01*
X20896145Y21224860D01*
X20920086Y21212023D01*
X20921245Y21211394D01*
X20997381Y21169538D01*
X20997389Y21169535D01*
X21002787Y21166567D01*
X21007869Y21164955D01*
X21012563Y21162438D01*
X21101531Y21135238D01*
X21102559Y21134918D01*
X21191306Y21106765D01*
X21196602Y21106171D01*
X21201698Y21104613D01*
X21294257Y21095210D01*
X21295393Y21095089D01*
X21329008Y21091319D01*
X21341730Y21089892D01*
X21341734Y21089892D01*
X21345227Y21089500D01*
X21348754Y21089500D01*
X21349739Y21089445D01*
X21355419Y21088998D01*
X21384825Y21086011D01*
X21392337Y21085248D01*
X21392339Y21085248D01*
X21398462Y21084626D01*
X21444108Y21088941D01*
X21455967Y21089500D01*
X22359075Y21089500D01*
X22427196Y21069498D01*
X22473689Y21015842D01*
X22483793Y20945568D01*
X22454299Y20880988D01*
X22448170Y20874405D01*
X20920621Y19346855D01*
X20910478Y19337753D01*
X20880975Y19314032D01*
X20877008Y19309304D01*
X20848709Y19275579D01*
X20845528Y19271931D01*
X20843885Y19270119D01*
X20841691Y19267925D01*
X20814358Y19234651D01*
X20813696Y19233853D01*
X20753846Y19162526D01*
X20751278Y19157856D01*
X20747897Y19153739D01*
X20716860Y19095855D01*
X20704023Y19071914D01*
X20703394Y19070755D01*
X20661538Y18994619D01*
X20661535Y18994611D01*
X20658567Y18989213D01*
X20656955Y18984131D01*
X20654438Y18979437D01*
X20627238Y18890469D01*
X20626918Y18889441D01*
X20598765Y18800694D01*
X20598171Y18795398D01*
X20596613Y18790302D01*
X20587976Y18705271D01*
X20587218Y18697813D01*
X20587089Y18696607D01*
X20581500Y18646773D01*
X20581500Y18643246D01*
X20581445Y18642261D01*
X20580998Y18636581D01*
X20576626Y18593538D01*
X20579475Y18563400D01*
X20580941Y18547891D01*
X20581500Y18536033D01*
X20581500Y17390740D01*
X20558713Y17318469D01*
X20452477Y17166749D01*
X20450154Y17161767D01*
X20450151Y17161762D01*
X20396066Y17045775D01*
X20355716Y16959243D01*
X20354294Y16953935D01*
X20354293Y16953933D01*
X20319272Y16823233D01*
X20296457Y16738087D01*
X20276502Y16510000D01*
X20296457Y16281913D01*
X20297881Y16276600D01*
X20297881Y16276598D01*
X20327816Y16164882D01*
X20355716Y16060757D01*
X20358039Y16055776D01*
X20358039Y16055775D01*
X20450151Y15858238D01*
X20450154Y15858233D01*
X20452477Y15853251D01*
X20583802Y15665700D01*
X20745700Y15503802D01*
X20750208Y15500645D01*
X20750211Y15500643D01*
X20760231Y15493627D01*
X20933251Y15372477D01*
X20938233Y15370154D01*
X20938238Y15370151D01*
X21135775Y15278039D01*
X21140757Y15275716D01*
X21146065Y15274294D01*
X21146067Y15274293D01*
X21356598Y15217881D01*
X21356600Y15217881D01*
X21361913Y15216457D01*
X21590000Y15196502D01*
X21818087Y15216457D01*
X21823400Y15217881D01*
X21823402Y15217881D01*
X22033933Y15274293D01*
X22033935Y15274294D01*
X22039243Y15275716D01*
X22044225Y15278039D01*
X22241762Y15370151D01*
X22241767Y15370154D01*
X22246749Y15372477D01*
X22419769Y15493627D01*
X22429789Y15500643D01*
X22429792Y15500645D01*
X22434300Y15503802D01*
X22596198Y15665700D01*
X22727523Y15853251D01*
X22729846Y15858233D01*
X22729849Y15858238D01*
X22821961Y16055775D01*
X22821961Y16055776D01*
X22824284Y16060757D01*
X22852185Y16164882D01*
X22882119Y16276598D01*
X22882119Y16276600D01*
X22883543Y16281913D01*
X22903498Y16510000D01*
X22883543Y16738087D01*
X22860728Y16823233D01*
X22825707Y16953933D01*
X22825706Y16953935D01*
X22824284Y16959243D01*
X22783934Y17045775D01*
X22729849Y17161762D01*
X22729846Y17161767D01*
X22727523Y17166749D01*
X22621287Y17318469D01*
X22598500Y17390740D01*
X22598500Y18120075D01*
X22618502Y18188196D01*
X22635405Y18209170D01*
X23880829Y19454595D01*
X23943141Y19488620D01*
X23969924Y19491500D01*
X25530074Y19491500D01*
X25598195Y19471498D01*
X25619169Y19454596D01*
X25803925Y19269841D01*
X25837949Y19207530D01*
X25832885Y19136714D01*
X25790338Y19079878D01*
X25723818Y19055067D01*
X25682219Y19059039D01*
X25633405Y19072118D01*
X25628087Y19073543D01*
X25400000Y19093498D01*
X25171913Y19073543D01*
X25166600Y19072119D01*
X25166598Y19072119D01*
X24956067Y19015707D01*
X24956065Y19015706D01*
X24950757Y19014284D01*
X24945776Y19011961D01*
X24945775Y19011961D01*
X24748238Y18919849D01*
X24748233Y18919846D01*
X24743251Y18917523D01*
X24681468Y18874262D01*
X24560211Y18789357D01*
X24560208Y18789355D01*
X24555700Y18786198D01*
X24393802Y18624300D01*
X24390645Y18619792D01*
X24390643Y18619789D01*
X24336159Y18541978D01*
X24262477Y18436749D01*
X24260154Y18431767D01*
X24260151Y18431762D01*
X24175185Y18249549D01*
X24165716Y18229243D01*
X24164294Y18223935D01*
X24164293Y18223933D01*
X24118657Y18053618D01*
X24106457Y18008087D01*
X24086502Y17780000D01*
X24106457Y17551913D01*
X24107881Y17546600D01*
X24107881Y17546598D01*
X24160289Y17351012D01*
X24165716Y17330757D01*
X24168039Y17325776D01*
X24168039Y17325775D01*
X24260151Y17128238D01*
X24260154Y17128233D01*
X24262477Y17123251D01*
X24313557Y17050302D01*
X24368713Y16971531D01*
X24391500Y16899260D01*
X24391500Y14850740D01*
X24368713Y14778469D01*
X24262477Y14626749D01*
X24260154Y14621767D01*
X24260151Y14621762D01*
X24171373Y14431375D01*
X24165716Y14419243D01*
X24106457Y14198087D01*
X24086502Y13970000D01*
X24106457Y13741913D01*
X24165716Y13520757D01*
X24168039Y13515776D01*
X24168039Y13515775D01*
X24260151Y13318238D01*
X24260154Y13318233D01*
X24262477Y13313251D01*
X24393802Y13125700D01*
X24555700Y12963802D01*
X24560208Y12960645D01*
X24560211Y12960643D01*
X24596258Y12935403D01*
X24743251Y12832477D01*
X24748233Y12830154D01*
X24748238Y12830151D01*
X24945775Y12738039D01*
X24950757Y12735716D01*
X24956065Y12734294D01*
X24956067Y12734293D01*
X25166598Y12677881D01*
X25166600Y12677881D01*
X25171913Y12676457D01*
X25400000Y12656502D01*
X25628087Y12676457D01*
X25633400Y12677881D01*
X25633402Y12677881D01*
X25843933Y12734293D01*
X25843935Y12734294D01*
X25849243Y12735716D01*
X25854225Y12738039D01*
X26051762Y12830151D01*
X26051767Y12830154D01*
X26056749Y12832477D01*
X26208469Y12938713D01*
X26280740Y12961500D01*
X27560075Y12961500D01*
X27628196Y12941498D01*
X27649170Y12924595D01*
X28257136Y12316630D01*
X28822075Y11751691D01*
X28936261Y11657897D01*
X28984747Y11631899D01*
X29035329Y11582082D01*
X29048121Y11548560D01*
X29052222Y11530361D01*
X29136266Y11323384D01*
X29178763Y11254035D01*
X29246445Y11143588D01*
X29252987Y11132912D01*
X29399250Y10964062D01*
X29571126Y10821368D01*
X29612577Y10797146D01*
X29644955Y10778226D01*
X29693679Y10726588D01*
X29706750Y10656805D01*
X29680019Y10591033D01*
X29639562Y10557673D01*
X29631457Y10553454D01*
X29622738Y10547964D01*
X29452433Y10420095D01*
X29444726Y10413252D01*
X29297590Y10259283D01*
X29291104Y10251273D01*
X29171098Y10075351D01*
X29166000Y10066377D01*
X29076338Y9873217D01*
X29072775Y9863530D01*
X29017389Y9663817D01*
X29018912Y9655393D01*
X29031292Y9652000D01*
X31671344Y9652000D01*
X31684875Y9655973D01*
X31686180Y9665053D01*
X31644214Y9832125D01*
X31640894Y9841876D01*
X31555972Y10037186D01*
X31551105Y10046261D01*
X31435426Y10225074D01*
X31429136Y10233243D01*
X31285806Y10390760D01*
X31278273Y10397785D01*
X31111139Y10529778D01*
X31102556Y10535480D01*
X31065602Y10555880D01*
X31015631Y10606313D01*
X31000859Y10675755D01*
X31025975Y10742161D01*
X31053327Y10768768D01*
X31076797Y10785509D01*
X31232860Y10896827D01*
X31391096Y11054511D01*
X31450594Y11137311D01*
X31518435Y11231723D01*
X31521453Y11235923D01*
X31528272Y11249719D01*
X31618136Y11431547D01*
X31618137Y11431549D01*
X31620430Y11436189D01*
X31650532Y11535266D01*
X31658256Y11560687D01*
X31697197Y11620051D01*
X31762051Y11648938D01*
X31832227Y11638176D01*
X31867909Y11613153D01*
X32454595Y11026467D01*
X32488621Y10964155D01*
X32491500Y10937372D01*
X32491500Y5969925D01*
X32471498Y5901804D01*
X32454595Y5880830D01*
X29119171Y2545405D01*
X29056859Y2511379D01*
X29030076Y2508500D01*
X26221314Y2508500D01*
X26153193Y2528502D01*
X26106700Y2582158D01*
X26096596Y2652432D01*
X26126090Y2717012D01*
X26149044Y2737713D01*
X26239462Y2801024D01*
X26247875Y2808084D01*
X26401916Y2962125D01*
X26408972Y2970533D01*
X26533931Y3148993D01*
X26539414Y3158489D01*
X26631490Y3355947D01*
X26635236Y3366239D01*
X26681394Y3538503D01*
X26681058Y3552599D01*
X26673116Y3556000D01*
X24132033Y3556000D01*
X24118502Y3552027D01*
X24117273Y3543478D01*
X24164764Y3366239D01*
X24168510Y3355947D01*
X24260586Y3158489D01*
X24266069Y3148993D01*
X24391028Y2970533D01*
X24398084Y2962125D01*
X24552125Y2808084D01*
X24560538Y2801024D01*
X24650956Y2737713D01*
X24695285Y2682256D01*
X24702594Y2611637D01*
X24670564Y2548276D01*
X24609362Y2512291D01*
X24578686Y2508500D01*
X22321999Y2508500D01*
X22253878Y2528502D01*
X22207385Y2582158D01*
X22197281Y2652432D01*
X22223577Y2713171D01*
X22231424Y2722988D01*
X22224356Y2736434D01*
X21522812Y3437978D01*
X21508868Y3445592D01*
X21507035Y3445461D01*
X21500420Y3441210D01*
X20794923Y2735713D01*
X20788493Y2723938D01*
X20798038Y2711600D01*
X20823902Y2645482D01*
X20809913Y2575877D01*
X20760513Y2524884D01*
X20698381Y2508500D01*
X17969924Y2508500D01*
X17901803Y2528502D01*
X17880829Y2545405D01*
X17568034Y2858200D01*
X17534008Y2920512D01*
X17539073Y2991327D01*
X17553916Y3019566D01*
X17644366Y3148742D01*
X17644367Y3148744D01*
X17647523Y3153251D01*
X17649846Y3158233D01*
X17649849Y3158238D01*
X17741961Y3355775D01*
X17741961Y3355776D01*
X17744284Y3360757D01*
X17764976Y3437978D01*
X17802119Y3576598D01*
X17802119Y3576600D01*
X17803543Y3581913D01*
X17823019Y3804525D01*
X20197483Y3804525D01*
X20216472Y3587481D01*
X20218375Y3576688D01*
X20274764Y3366239D01*
X20278510Y3355947D01*
X20370586Y3158489D01*
X20376069Y3148994D01*
X20412509Y3096952D01*
X20422988Y3088576D01*
X20436434Y3095644D01*
X21137978Y3797188D01*
X21144356Y3808868D01*
X21874408Y3808868D01*
X21874539Y3807035D01*
X21878790Y3800420D01*
X22584287Y3094923D01*
X22596062Y3088493D01*
X22608077Y3097789D01*
X22643931Y3148994D01*
X22649414Y3158489D01*
X22741490Y3355947D01*
X22745236Y3366239D01*
X22801625Y3576688D01*
X22803528Y3587481D01*
X22822517Y3804525D01*
X22822517Y3815475D01*
X22803528Y4032519D01*
X22801625Y4043312D01*
X22791393Y4081497D01*
X24118606Y4081497D01*
X24118942Y4067401D01*
X24126884Y4064000D01*
X25127885Y4064000D01*
X25143124Y4068475D01*
X25144329Y4069865D01*
X25146000Y4077548D01*
X25146000Y4082115D01*
X25654000Y4082115D01*
X25658475Y4066876D01*
X25659865Y4065671D01*
X25667548Y4064000D01*
X26667967Y4064000D01*
X26681498Y4067973D01*
X26682727Y4076522D01*
X26635236Y4253761D01*
X26631490Y4264053D01*
X26539414Y4461511D01*
X26533931Y4471007D01*
X26408972Y4649467D01*
X26401916Y4657875D01*
X26247875Y4811916D01*
X26239467Y4818972D01*
X26061007Y4943931D01*
X26051511Y4949414D01*
X25854053Y5041490D01*
X25843761Y5045236D01*
X25671497Y5091394D01*
X25657401Y5091058D01*
X25654000Y5083116D01*
X25654000Y4082115D01*
X25146000Y4082115D01*
X25146000Y5077967D01*
X25142027Y5091498D01*
X25133478Y5092727D01*
X24956239Y5045236D01*
X24945947Y5041490D01*
X24748489Y4949414D01*
X24738993Y4943931D01*
X24560533Y4818972D01*
X24552125Y4811916D01*
X24398084Y4657875D01*
X24391028Y4649467D01*
X24266069Y4471007D01*
X24260586Y4461511D01*
X24168510Y4264053D01*
X24164764Y4253761D01*
X24118606Y4081497D01*
X22791393Y4081497D01*
X22745236Y4253761D01*
X22741490Y4264053D01*
X22649414Y4461511D01*
X22643931Y4471006D01*
X22607491Y4523048D01*
X22597012Y4531424D01*
X22583566Y4524356D01*
X21882022Y3822812D01*
X21874408Y3808868D01*
X21144356Y3808868D01*
X21145592Y3811132D01*
X21145461Y3812965D01*
X21141210Y3819580D01*
X20435713Y4525077D01*
X20423938Y4531507D01*
X20411923Y4522211D01*
X20376069Y4471006D01*
X20370586Y4461511D01*
X20278510Y4264053D01*
X20274764Y4253761D01*
X20218375Y4043312D01*
X20216472Y4032519D01*
X20197483Y3815475D01*
X20197483Y3804525D01*
X17823019Y3804525D01*
X17823498Y3810000D01*
X17803543Y4038087D01*
X17801844Y4044427D01*
X17745707Y4253933D01*
X17745706Y4253935D01*
X17744284Y4259243D01*
X17741961Y4264225D01*
X17649849Y4461762D01*
X17649846Y4461767D01*
X17647523Y4466749D01*
X17574098Y4571611D01*
X17519357Y4649789D01*
X17519355Y4649792D01*
X17516198Y4654300D01*
X17354300Y4816198D01*
X17349792Y4819355D01*
X17349789Y4819357D01*
X17238886Y4897012D01*
X17166749Y4947523D01*
X17161767Y4949846D01*
X17161762Y4949849D01*
X16964225Y5041961D01*
X16964224Y5041961D01*
X16959243Y5044284D01*
X16953935Y5045706D01*
X16953933Y5045707D01*
X16743402Y5102119D01*
X16743400Y5102119D01*
X16738087Y5103543D01*
X16510000Y5123498D01*
X16281913Y5103543D01*
X16276600Y5102119D01*
X16276598Y5102119D01*
X16066067Y5045707D01*
X16066065Y5045706D01*
X16060757Y5044284D01*
X16055776Y5041961D01*
X16055775Y5041961D01*
X15858238Y4949849D01*
X15858233Y4949846D01*
X15853251Y4947523D01*
X15722963Y4856294D01*
X15701531Y4841287D01*
X15629260Y4818500D01*
X13069118Y4818500D01*
X13000997Y4838502D01*
X12954504Y4892158D01*
X12944400Y4962432D01*
X12973894Y5027012D01*
X12987701Y5040662D01*
X13090862Y5127994D01*
X13258295Y5318916D01*
X13260825Y5322848D01*
X13393141Y5528558D01*
X13395669Y5532488D01*
X13499967Y5764020D01*
X13568896Y6008425D01*
X13579115Y6088748D01*
X13600545Y6257202D01*
X13600545Y6257208D01*
X13600943Y6260333D01*
X13603291Y6350000D01*
X13588064Y6554904D01*
X13584818Y6598589D01*
X13584817Y6598593D01*
X13584472Y6603241D01*
X13528428Y6850918D01*
X13436391Y7087591D01*
X13310383Y7308060D01*
X13153171Y7507483D01*
X12968209Y7681477D01*
X12952680Y7692250D01*
X12908110Y7747513D01*
X12898500Y7795777D01*
X12898500Y8880075D01*
X12918502Y8948196D01*
X12935405Y8969170D01*
X14073090Y10106855D01*
X15298383Y11332149D01*
X15360695Y11366174D01*
X15431510Y11361110D01*
X15488346Y11318563D01*
X15512999Y11254035D01*
X15513913Y11243587D01*
X15515400Y11238468D01*
X15515920Y11233167D01*
X15542791Y11144166D01*
X15543126Y11143033D01*
X15546067Y11132912D01*
X15569091Y11053664D01*
X15571544Y11048932D01*
X15573084Y11043831D01*
X15575978Y11038388D01*
X15616731Y10961740D01*
X15617343Y10960574D01*
X15660108Y10878074D01*
X15663431Y10873911D01*
X15665934Y10869204D01*
X15724755Y10797082D01*
X15725446Y10796226D01*
X15756738Y10757027D01*
X15759242Y10754523D01*
X15759884Y10753805D01*
X15763585Y10749472D01*
X15790935Y10715938D01*
X15795682Y10712011D01*
X15795684Y10712009D01*
X15826262Y10686713D01*
X15835042Y10678723D01*
X20254882Y6258884D01*
X20288908Y6196572D01*
X20291308Y6180773D01*
X20296457Y6121913D01*
X20355716Y5900757D01*
X20358039Y5895776D01*
X20358039Y5895775D01*
X20450151Y5698238D01*
X20450154Y5698233D01*
X20452477Y5693251D01*
X20480562Y5653142D01*
X20567797Y5528558D01*
X20583802Y5505700D01*
X20745700Y5343802D01*
X20750208Y5340645D01*
X20750211Y5340643D01*
X20928750Y5215628D01*
X20928755Y5215625D01*
X20933251Y5212477D01*
X20938225Y5210157D01*
X20942823Y5207503D01*
X20991815Y5156119D01*
X21005249Y5086405D01*
X20978860Y5020495D01*
X20933070Y4984191D01*
X20858489Y4949414D01*
X20848994Y4943931D01*
X20796952Y4907491D01*
X20788576Y4897012D01*
X20795644Y4883566D01*
X21497188Y4182022D01*
X21511132Y4174408D01*
X21512965Y4174539D01*
X21519580Y4178790D01*
X22225077Y4884287D01*
X22231507Y4896062D01*
X22222211Y4908077D01*
X22171002Y4943934D01*
X22157153Y4951930D01*
X22108160Y5003313D01*
X22094724Y5073026D01*
X22121110Y5138937D01*
X22166903Y5175244D01*
X22241762Y5210151D01*
X22241767Y5210154D01*
X22246749Y5212477D01*
X22393742Y5315403D01*
X22429789Y5340643D01*
X22429792Y5340645D01*
X22434300Y5343802D01*
X22596198Y5505700D01*
X22612204Y5528558D01*
X22699438Y5653142D01*
X22727523Y5693251D01*
X22729846Y5698233D01*
X22729849Y5698238D01*
X22821961Y5895775D01*
X22821961Y5895776D01*
X22824284Y5900757D01*
X22883543Y6121913D01*
X22903498Y6350000D01*
X22883543Y6578087D01*
X22879196Y6594311D01*
X22825707Y6793933D01*
X22825706Y6793935D01*
X22824284Y6799243D01*
X22800188Y6850918D01*
X22729849Y7001762D01*
X22729846Y7001767D01*
X22727523Y7006749D01*
X22596198Y7194300D01*
X22434300Y7356198D01*
X22429792Y7359355D01*
X22429789Y7359357D01*
X22351611Y7414098D01*
X22246749Y7487523D01*
X22241767Y7489846D01*
X22241762Y7489849D01*
X22044225Y7581961D01*
X22044224Y7581961D01*
X22039243Y7584284D01*
X22033935Y7585706D01*
X22033933Y7585707D01*
X21965859Y7603947D01*
X21818087Y7643543D01*
X21759231Y7648692D01*
X21693113Y7674555D01*
X21681117Y7685118D01*
X20236201Y9130034D01*
X29021257Y9130034D01*
X29051565Y8995554D01*
X29054645Y8985725D01*
X29134770Y8788397D01*
X29139413Y8779206D01*
X29250694Y8597612D01*
X29256777Y8589301D01*
X29396213Y8428333D01*
X29403580Y8421117D01*
X29567434Y8285084D01*
X29575881Y8279169D01*
X29759756Y8171721D01*
X29769042Y8167271D01*
X29968001Y8091297D01*
X29977899Y8088421D01*
X30081250Y8067394D01*
X30095299Y8068590D01*
X30099000Y8078935D01*
X30099000Y8079483D01*
X30607000Y8079483D01*
X30611064Y8065641D01*
X30624478Y8063607D01*
X30631184Y8064466D01*
X30641262Y8066608D01*
X30845255Y8127809D01*
X30854842Y8131567D01*
X31046095Y8225261D01*
X31054945Y8230536D01*
X31228328Y8354208D01*
X31236200Y8360861D01*
X31387052Y8511188D01*
X31393730Y8519035D01*
X31518003Y8691980D01*
X31523313Y8700817D01*
X31617670Y8891733D01*
X31621469Y8901328D01*
X31683377Y9105090D01*
X31685555Y9115163D01*
X31686986Y9126038D01*
X31684775Y9140222D01*
X31671617Y9144000D01*
X30625115Y9144000D01*
X30609876Y9139525D01*
X30608671Y9138135D01*
X30607000Y9130452D01*
X30607000Y8079483D01*
X30099000Y8079483D01*
X30099000Y9125885D01*
X30094525Y9141124D01*
X30093135Y9142329D01*
X30085452Y9144000D01*
X29036225Y9144000D01*
X29022694Y9140027D01*
X29021257Y9130034D01*
X20236201Y9130034D01*
X19621441Y9744794D01*
X17555405Y11810829D01*
X17521379Y11873141D01*
X17518500Y11899924D01*
X17518500Y13089260D01*
X17541287Y13161531D01*
X17644366Y13308743D01*
X17647523Y13313251D01*
X17649846Y13318233D01*
X17649849Y13318238D01*
X17741961Y13515775D01*
X17741961Y13515776D01*
X17744284Y13520757D01*
X17803543Y13741913D01*
X17823498Y13970000D01*
X17803543Y14198087D01*
X17744284Y14419243D01*
X17738627Y14431375D01*
X17649849Y14621762D01*
X17649846Y14621767D01*
X17647523Y14626749D01*
X17524674Y14802195D01*
X17519357Y14809789D01*
X17519355Y14809792D01*
X17516198Y14814300D01*
X17354300Y14976198D01*
X17349792Y14979355D01*
X17349789Y14979357D01*
X17245818Y15052158D01*
X17166749Y15107523D01*
X17161767Y15109846D01*
X17161762Y15109849D01*
X16964225Y15201961D01*
X16964224Y15201961D01*
X16959243Y15204284D01*
X16953935Y15205706D01*
X16953933Y15205707D01*
X16743402Y15262119D01*
X16743400Y15262119D01*
X16738087Y15263543D01*
X16510000Y15283498D01*
X16281913Y15263543D01*
X16276600Y15262119D01*
X16276598Y15262119D01*
X16066067Y15205707D01*
X16066065Y15205706D01*
X16060757Y15204284D01*
X16055776Y15201961D01*
X16055775Y15201961D01*
X15858238Y15109849D01*
X15858233Y15109846D01*
X15853251Y15107523D01*
X15774182Y15052158D01*
X15670211Y14979357D01*
X15670208Y14979355D01*
X15665700Y14976198D01*
X15503802Y14814300D01*
X15500645Y14809792D01*
X15500643Y14809789D01*
X15495326Y14802195D01*
X15372477Y14626749D01*
X15370154Y14621767D01*
X15370151Y14621762D01*
X15281373Y14431375D01*
X15275716Y14419243D01*
X15216457Y14198087D01*
X15215978Y14192608D01*
X15211308Y14139230D01*
X15185445Y14073112D01*
X15174882Y14061116D01*
X11220621Y10106855D01*
X11210478Y10097753D01*
X11180975Y10074032D01*
X11177008Y10069304D01*
X11148709Y10035579D01*
X11145528Y10031931D01*
X11143885Y10030119D01*
X11141691Y10027925D01*
X11114358Y9994651D01*
X11113696Y9993853D01*
X11053846Y9922526D01*
X11051278Y9917856D01*
X11047897Y9913739D01*
X11020975Y9863530D01*
X11004023Y9831914D01*
X11003394Y9830755D01*
X10961538Y9754619D01*
X10961535Y9754611D01*
X10958567Y9749213D01*
X10956955Y9744131D01*
X10954438Y9739437D01*
X10927238Y9650469D01*
X10926918Y9649441D01*
X10898765Y9560694D01*
X10898171Y9555398D01*
X10896613Y9550302D01*
X10895990Y9544166D01*
X10887218Y9457813D01*
X10887089Y9456607D01*
X10881500Y9406773D01*
X10881500Y9403246D01*
X10881445Y9402261D01*
X10880998Y9396581D01*
X10876626Y9353538D01*
X10877206Y9347407D01*
X10880941Y9307891D01*
X10881500Y9296033D01*
X10881500Y7796452D01*
X10861498Y7728331D01*
X10839402Y7702450D01*
X10657562Y7540152D01*
X10627341Y7503815D01*
X10501328Y7352301D01*
X10495183Y7344913D01*
X10492757Y7340915D01*
X10491361Y7338958D01*
X10435517Y7295118D01*
X10364836Y7288428D01*
X10301759Y7321013D01*
X10289835Y7334125D01*
X10286025Y7338958D01*
X10153171Y7507483D01*
X9998812Y7652689D01*
X9971610Y7678278D01*
X9971608Y7678280D01*
X9968209Y7681477D01*
X9895591Y7731854D01*
X9763393Y7823563D01*
X9763390Y7823565D01*
X9759561Y7826221D01*
X9755384Y7828281D01*
X9755377Y7828285D01*
X9535996Y7936472D01*
X9535992Y7936473D01*
X9531810Y7938536D01*
X9289960Y8015953D01*
X9150777Y8038620D01*
X9043935Y8056020D01*
X9043934Y8056020D01*
X9039323Y8056771D01*
X8908719Y8058481D01*
X8790082Y8060034D01*
X8790079Y8060034D01*
X8785406Y8060095D01*
X8780780Y8059465D01*
X8780773Y8059465D01*
X8732882Y8052947D01*
X8689520Y8047045D01*
X8619326Y8057678D01*
X8583435Y8082799D01*
X7395405Y9270829D01*
X7361379Y9333141D01*
X7358500Y9359924D01*
X7358500Y12526728D01*
X7378502Y12594849D01*
X7403086Y12622893D01*
X7550862Y12747994D01*
X7700459Y12918577D01*
X7760411Y12956605D01*
X7795190Y12961500D01*
X10629260Y12961500D01*
X10701531Y12938713D01*
X10853251Y12832477D01*
X10858233Y12830154D01*
X10858238Y12830151D01*
X11055775Y12738039D01*
X11060757Y12735716D01*
X11066065Y12734294D01*
X11066067Y12734293D01*
X11276598Y12677881D01*
X11276600Y12677881D01*
X11281913Y12676457D01*
X11510000Y12656502D01*
X11738087Y12676457D01*
X11743400Y12677881D01*
X11743402Y12677881D01*
X11953933Y12734293D01*
X11953935Y12734294D01*
X11959243Y12735716D01*
X11964225Y12738039D01*
X12161762Y12830151D01*
X12161767Y12830154D01*
X12166749Y12832477D01*
X12313742Y12935403D01*
X12349789Y12960643D01*
X12349792Y12960645D01*
X12354300Y12963802D01*
X12516198Y13125700D01*
X12647523Y13313251D01*
X12649846Y13318233D01*
X12649849Y13318238D01*
X12741961Y13515775D01*
X12741961Y13515776D01*
X12744284Y13520757D01*
X12803543Y13741913D01*
X12812527Y13844604D01*
X12838390Y13910723D01*
X12848953Y13922718D01*
X15091116Y16164882D01*
X15153428Y16198907D01*
X15169227Y16201308D01*
X15228087Y16206457D01*
X15375859Y16246053D01*
X15443933Y16264293D01*
X15443935Y16264294D01*
X15449243Y16265716D01*
X15606053Y16338837D01*
X15651762Y16360151D01*
X15651767Y16360154D01*
X15656749Y16362477D01*
X15761611Y16435902D01*
X15839789Y16490643D01*
X15839792Y16490645D01*
X15844300Y16493802D01*
X16006198Y16655700D01*
X16137523Y16843251D01*
X16139846Y16848233D01*
X16139849Y16848238D01*
X16231961Y17045775D01*
X16231961Y17045776D01*
X16234284Y17050757D01*
X16261043Y17150620D01*
X16292119Y17266598D01*
X16292119Y17266600D01*
X16293543Y17271913D01*
X16313498Y17500000D01*
X16293543Y17728087D01*
X16278166Y17785475D01*
X16235707Y17943933D01*
X16235706Y17943935D01*
X16234284Y17949243D01*
X16206845Y18008087D01*
X16139849Y18151762D01*
X16139846Y18151767D01*
X16137523Y18156749D01*
X16064098Y18261611D01*
X16009357Y18339789D01*
X16009355Y18339792D01*
X16006198Y18344300D01*
X15844300Y18506198D01*
X15839792Y18509355D01*
X15839789Y18509357D01*
X15728322Y18587407D01*
X15656749Y18637523D01*
X15651767Y18639846D01*
X15651762Y18639849D01*
X15454225Y18731961D01*
X15454224Y18731961D01*
X15449243Y18734284D01*
X15443935Y18735706D01*
X15443933Y18735707D01*
X15233402Y18792119D01*
X15233400Y18792119D01*
X15228087Y18793543D01*
X15000000Y18813498D01*
X14771913Y18793543D01*
X14766600Y18792119D01*
X14766598Y18792119D01*
X14556067Y18735707D01*
X14556065Y18735706D01*
X14550757Y18734284D01*
X14545776Y18731961D01*
X14545775Y18731961D01*
X14348238Y18639849D01*
X14348233Y18639846D01*
X14343251Y18637523D01*
X14271678Y18587407D01*
X14160211Y18509357D01*
X14160208Y18509355D01*
X14155700Y18506198D01*
X13993802Y18344300D01*
X13990645Y18339792D01*
X13990643Y18339789D01*
X13935902Y18261611D01*
X13862477Y18156749D01*
X13860154Y18151767D01*
X13860151Y18151762D01*
X13793155Y18008087D01*
X13765716Y17949243D01*
X13706457Y17728087D01*
X13702830Y17686625D01*
X13701308Y17669231D01*
X13675445Y17603113D01*
X13664882Y17591117D01*
X11375049Y15301283D01*
X11312737Y15267258D01*
X11296936Y15264857D01*
X11281913Y15263543D01*
X11134141Y15223947D01*
X11066067Y15205707D01*
X11066065Y15205706D01*
X11060757Y15204284D01*
X11055776Y15201961D01*
X11055775Y15201961D01*
X10858238Y15109849D01*
X10858233Y15109846D01*
X10853251Y15107523D01*
X10774182Y15052158D01*
X10701531Y15001287D01*
X10629260Y14978500D01*
X7791734Y14978500D01*
X7723613Y14998502D01*
X7692784Y15026494D01*
X7672552Y15052158D01*
X7613171Y15127483D01*
X7468025Y15264022D01*
X7431610Y15298278D01*
X7431608Y15298280D01*
X7428209Y15301477D01*
X7355591Y15351854D01*
X7223393Y15443563D01*
X7223390Y15443565D01*
X7219561Y15446221D01*
X7215384Y15448281D01*
X7215377Y15448285D01*
X6995996Y15556472D01*
X6995992Y15556473D01*
X6991810Y15558536D01*
X6749960Y15635953D01*
X6745355Y15636703D01*
X6503935Y15676020D01*
X6503934Y15676020D01*
X6499323Y15676771D01*
X6372364Y15678433D01*
X6250083Y15680034D01*
X6250080Y15680034D01*
X6245406Y15680095D01*
X5993787Y15645851D01*
X5989301Y15644543D01*
X5989299Y15644543D01*
X5933874Y15628388D01*
X5749993Y15574792D01*
X5519380Y15468478D01*
X5515471Y15465915D01*
X5310928Y15331811D01*
X5310923Y15331807D01*
X5307015Y15329245D01*
X5237564Y15267258D01*
X5180647Y15216457D01*
X5117562Y15160152D01*
X5082014Y15117410D01*
X4961328Y14972301D01*
X4955183Y14964913D01*
X4952758Y14960916D01*
X4951361Y14958958D01*
X4895517Y14915118D01*
X4824836Y14908428D01*
X4761759Y14941013D01*
X4749835Y14954125D01*
X4743762Y14961829D01*
X4613171Y15127483D01*
X4428209Y15301477D01*
X4416323Y15309723D01*
X4412680Y15312250D01*
X4368110Y15367513D01*
X4358500Y15415777D01*
X4358500Y16365500D01*
X4378502Y16433621D01*
X4432158Y16480114D01*
X4484500Y16491500D01*
X9119260Y16491500D01*
X9191531Y16468713D01*
X9343251Y16362477D01*
X9348233Y16360154D01*
X9348238Y16360151D01*
X9393947Y16338837D01*
X9550757Y16265716D01*
X9556065Y16264294D01*
X9556067Y16264293D01*
X9766598Y16207881D01*
X9766600Y16207881D01*
X9771913Y16206457D01*
X10000000Y16186502D01*
X10228087Y16206457D01*
X10233400Y16207881D01*
X10233402Y16207881D01*
X10443933Y16264293D01*
X10443935Y16264294D01*
X10449243Y16265716D01*
X10606053Y16338837D01*
X10651762Y16360151D01*
X10651767Y16360154D01*
X10656749Y16362477D01*
X10761611Y16435902D01*
X10839789Y16490643D01*
X10839792Y16490645D01*
X10844300Y16493802D01*
X11006198Y16655700D01*
X11137523Y16843251D01*
X11139846Y16848233D01*
X11139849Y16848238D01*
X11231961Y17045775D01*
X11231961Y17045776D01*
X11234284Y17050757D01*
X11261043Y17150620D01*
X11292119Y17266598D01*
X11292119Y17266600D01*
X11293543Y17271913D01*
X11313498Y17500000D01*
X11293543Y17728087D01*
X11278166Y17785475D01*
X11235707Y17943933D01*
X11235706Y17943935D01*
X11234284Y17949243D01*
X11206845Y18008087D01*
X11139849Y18151762D01*
X11139846Y18151767D01*
X11137523Y18156749D01*
X11064098Y18261611D01*
X11009357Y18339789D01*
X11009355Y18339792D01*
X11006198Y18344300D01*
X10844300Y18506198D01*
X10839792Y18509355D01*
X10839789Y18509357D01*
X10728322Y18587407D01*
X10656749Y18637523D01*
X10651767Y18639846D01*
X10651762Y18639849D01*
X10454225Y18731961D01*
X10454224Y18731961D01*
X10449243Y18734284D01*
X10443935Y18735706D01*
X10443933Y18735707D01*
X10233402Y18792119D01*
X10233400Y18792119D01*
X10228087Y18793543D01*
X10000000Y18813498D01*
X9771913Y18793543D01*
X9766600Y18792119D01*
X9766598Y18792119D01*
X9556067Y18735707D01*
X9556065Y18735706D01*
X9550757Y18734284D01*
X9545776Y18731961D01*
X9545775Y18731961D01*
X9348238Y18639849D01*
X9348233Y18639846D01*
X9343251Y18637523D01*
X9216489Y18548763D01*
X9191531Y18531287D01*
X9119260Y18508500D01*
X4061843Y18508500D01*
X4048236Y18509237D01*
X4016738Y18512659D01*
X4016733Y18512659D01*
X4010612Y18513324D01*
X3984362Y18511027D01*
X3960612Y18508950D01*
X3955786Y18508621D01*
X3953314Y18508500D01*
X3950231Y18508500D01*
X3938262Y18507326D01*
X3907494Y18504310D01*
X3906181Y18504188D01*
X3861916Y18500315D01*
X3813587Y18496087D01*
X3808468Y18494600D01*
X3803167Y18494080D01*
X3714166Y18467209D01*
X3713033Y18466874D01*
X3629586Y18442630D01*
X3629582Y18442628D01*
X3623664Y18440909D01*
X3618932Y18438456D01*
X3613831Y18436916D01*
X3608388Y18434022D01*
X3531740Y18393269D01*
X3530574Y18392657D01*
X3472366Y18362484D01*
X3448074Y18349892D01*
X3443911Y18346569D01*
X3439204Y18344066D01*
X3434429Y18340172D01*
X3434428Y18340171D01*
X3367102Y18285261D01*
X3366075Y18284433D01*
X3329792Y18255469D01*
X3329787Y18255464D01*
X3327028Y18253262D01*
X3324527Y18250761D01*
X3323809Y18250119D01*
X3319461Y18246406D01*
X3285938Y18219065D01*
X3282015Y18214323D01*
X3282013Y18214321D01*
X3256703Y18183727D01*
X3248713Y18174947D01*
X2680621Y17606855D01*
X2670478Y17597753D01*
X2640975Y17574032D01*
X2637008Y17569304D01*
X2608709Y17535579D01*
X2605528Y17531931D01*
X2603885Y17530119D01*
X2601691Y17527925D01*
X2574358Y17494651D01*
X2573696Y17493853D01*
X2513846Y17422526D01*
X2511278Y17417856D01*
X2507897Y17413739D01*
X2476860Y17355855D01*
X2464023Y17331914D01*
X2463394Y17330755D01*
X2421538Y17254619D01*
X2421535Y17254611D01*
X2418567Y17249213D01*
X2416955Y17244131D01*
X2414438Y17239437D01*
X2387238Y17150469D01*
X2386918Y17149441D01*
X2358765Y17060694D01*
X2358171Y17055398D01*
X2356613Y17050302D01*
X2348612Y16971531D01*
X2347218Y16957813D01*
X2347089Y16956607D01*
X2341500Y16906773D01*
X2341500Y16903246D01*
X2341445Y16902261D01*
X2340998Y16896581D01*
X2336626Y16853538D01*
X2338025Y16838743D01*
X2340941Y16807891D01*
X2341500Y16796033D01*
X2341500Y15416452D01*
X2321498Y15348331D01*
X2299402Y15322450D01*
X2237564Y15267258D01*
X2180647Y15216457D01*
X2117562Y15160152D01*
X1955183Y14964913D01*
X1823447Y14747818D01*
X1821638Y14743504D01*
X1821637Y14743502D01*
X1772679Y14626749D01*
X1725246Y14513635D01*
X1724095Y14509103D01*
X1724094Y14509100D01*
X1702539Y14424225D01*
X1662738Y14267510D01*
X1637296Y14014849D01*
X1637520Y14010183D01*
X1637520Y14010178D01*
X1642298Y13910723D01*
X1649480Y13761202D01*
X1650393Y13756614D01*
X1697308Y13520757D01*
X1699021Y13512143D01*
X1700600Y13507745D01*
X1700602Y13507738D01*
X1768640Y13318238D01*
X1784831Y13273142D01*
X1905025Y13049449D01*
X1907820Y13045706D01*
X1907822Y13045703D01*
X2054171Y12849718D01*
X2054176Y12849712D01*
X2056963Y12845980D01*
X2060272Y12842700D01*
X2060277Y12842694D01*
X2158853Y12744975D01*
X2237307Y12667203D01*
X2241069Y12664445D01*
X2241072Y12664442D01*
X2335985Y12594849D01*
X2442094Y12517047D01*
X2446229Y12514871D01*
X2446233Y12514869D01*
X2564289Y12452757D01*
X2666827Y12398809D01*
X2906568Y12315088D01*
X3156050Y12267722D01*
X3276532Y12262989D01*
X3405125Y12257936D01*
X3405130Y12257936D01*
X3409793Y12257753D01*
X3508774Y12268593D01*
X3657569Y12284888D01*
X3657575Y12284889D01*
X3662222Y12285398D01*
X3771680Y12314216D01*
X3903273Y12348862D01*
X3907793Y12350052D01*
X4026353Y12400989D01*
X4136807Y12448443D01*
X4136810Y12448445D01*
X4141110Y12450292D01*
X4145090Y12452755D01*
X4145094Y12452757D01*
X4353064Y12581453D01*
X4353066Y12581455D01*
X4357047Y12583918D01*
X4360624Y12586946D01*
X4547289Y12744969D01*
X4547291Y12744971D01*
X4550862Y12747994D01*
X4718295Y12938916D01*
X4729673Y12956605D01*
X4744648Y12979885D01*
X4798322Y13026356D01*
X4868600Y13036431D01*
X4933169Y13006912D01*
X4951576Y12987110D01*
X5054171Y12849718D01*
X5054176Y12849712D01*
X5056963Y12845980D01*
X5060272Y12842700D01*
X5060277Y12842694D01*
X5158853Y12744975D01*
X5237307Y12667203D01*
X5241069Y12664445D01*
X5241072Y12664442D01*
X5290005Y12628563D01*
X5333113Y12572152D01*
X5341500Y12526951D01*
X5341500Y8951843D01*
X5340763Y8938236D01*
X5340115Y8932265D01*
X5336676Y8900612D01*
X5337213Y8894477D01*
X5341050Y8850612D01*
X5341379Y8845786D01*
X5341500Y8843314D01*
X5341500Y8840231D01*
X5341801Y8837163D01*
X5345690Y8797494D01*
X5345812Y8796181D01*
X5353913Y8703587D01*
X5355400Y8698468D01*
X5355920Y8693167D01*
X5382791Y8604166D01*
X5383126Y8603033D01*
X5409091Y8513664D01*
X5411544Y8508932D01*
X5413084Y8503831D01*
X5415978Y8498388D01*
X5456731Y8421740D01*
X5457343Y8420574D01*
X5500108Y8338074D01*
X5503431Y8333911D01*
X5505934Y8329204D01*
X5564755Y8257082D01*
X5565446Y8256226D01*
X5596738Y8217027D01*
X5599242Y8214523D01*
X5599884Y8213805D01*
X5603585Y8209472D01*
X5630935Y8175938D01*
X5635682Y8172011D01*
X5635684Y8172009D01*
X5666262Y8146713D01*
X5675042Y8138723D01*
X7157142Y6656623D01*
X7191168Y6594311D01*
X7193413Y6554906D01*
X7177296Y6394849D01*
X7189480Y6141202D01*
X7190393Y6136614D01*
X7237308Y5900757D01*
X7239021Y5892143D01*
X7240600Y5887745D01*
X7240602Y5887738D01*
X7285022Y5764020D01*
X7324831Y5653142D01*
X7327048Y5649016D01*
X7405724Y5502593D01*
X7445025Y5429449D01*
X7447820Y5425706D01*
X7447822Y5425703D01*
X7594171Y5229718D01*
X7594176Y5229712D01*
X7596963Y5225980D01*
X7600272Y5222700D01*
X7600277Y5222694D01*
X7767972Y5056457D01*
X7777307Y5047203D01*
X7781069Y5044445D01*
X7781072Y5044442D01*
X7830005Y5008563D01*
X7873113Y4952152D01*
X7881500Y4906951D01*
X7881500Y4671843D01*
X7880763Y4658236D01*
X7879811Y4649467D01*
X7876676Y4620612D01*
X7877213Y4614477D01*
X7881050Y4570612D01*
X7881379Y4565786D01*
X7881500Y4563314D01*
X7881500Y4560231D01*
X7881801Y4557163D01*
X7885690Y4517494D01*
X7885812Y4516181D01*
X7893913Y4423587D01*
X7895400Y4418468D01*
X7895920Y4413167D01*
X7922791Y4324166D01*
X7923126Y4323033D01*
X7949091Y4233664D01*
X7951544Y4228932D01*
X7953084Y4223831D01*
X7955978Y4218388D01*
X7996731Y4141740D01*
X7997343Y4140574D01*
X8040108Y4058074D01*
X8043431Y4053911D01*
X8045934Y4049204D01*
X8104755Y3977082D01*
X8105446Y3976226D01*
X8136738Y3937027D01*
X8139242Y3934523D01*
X8139884Y3933805D01*
X8143585Y3929472D01*
X8170935Y3895938D01*
X8206267Y3866709D01*
X8215037Y3858728D01*
X8933149Y3140617D01*
X8942251Y3130473D01*
X8965968Y3100975D01*
X9004421Y3068709D01*
X9008069Y3065528D01*
X9009881Y3063885D01*
X9012075Y3061691D01*
X9045349Y3034358D01*
X9046147Y3033696D01*
X9117474Y2973846D01*
X9122144Y2971278D01*
X9126261Y2967897D01*
X9184145Y2936860D01*
X9208086Y2924023D01*
X9209245Y2923394D01*
X9285381Y2881538D01*
X9285389Y2881535D01*
X9290787Y2878567D01*
X9295869Y2876955D01*
X9300563Y2874438D01*
X9306454Y2872637D01*
X9389477Y2847253D01*
X9390735Y2846861D01*
X9479306Y2818765D01*
X9484597Y2818171D01*
X9489698Y2816612D01*
X9582263Y2807210D01*
X9583450Y2807084D01*
X9612838Y2803787D01*
X9629730Y2801892D01*
X9629735Y2801892D01*
X9633227Y2801500D01*
X9636752Y2801500D01*
X9637737Y2801445D01*
X9643432Y2800997D01*
X9655342Y2799787D01*
X9680334Y2797248D01*
X9680339Y2797248D01*
X9686462Y2796626D01*
X9732108Y2800941D01*
X9743967Y2801500D01*
X15375500Y2801500D01*
X15443621Y2781498D01*
X15490114Y2727842D01*
X15501500Y2675500D01*
X15501500Y2551843D01*
X15500763Y2538236D01*
X15497533Y2508500D01*
X15496676Y2500612D01*
X15497213Y2494477D01*
X15501050Y2450612D01*
X15501379Y2445786D01*
X15501500Y2443314D01*
X15501500Y2440231D01*
X15501801Y2437163D01*
X15505690Y2397494D01*
X15505812Y2396181D01*
X15513913Y2303587D01*
X15515400Y2298468D01*
X15515920Y2293167D01*
X15542791Y2204166D01*
X15543126Y2203033D01*
X15569091Y2113664D01*
X15571544Y2108932D01*
X15573084Y2103831D01*
X15575978Y2098388D01*
X15616731Y2021740D01*
X15617343Y2020574D01*
X15660108Y1938074D01*
X15663431Y1933911D01*
X15665934Y1929204D01*
X15724755Y1857082D01*
X15725446Y1856226D01*
X15756738Y1817027D01*
X15759242Y1814523D01*
X15759884Y1813805D01*
X15763585Y1809472D01*
X15790935Y1775938D01*
X15826267Y1746709D01*
X15835037Y1738728D01*
X16743149Y830617D01*
X16752251Y820473D01*
X16775968Y790975D01*
X16814456Y758680D01*
X16818075Y755522D01*
X16819889Y753877D01*
X16822075Y751691D01*
X16824458Y749733D01*
X16824462Y749730D01*
X16846211Y731865D01*
X16886155Y673171D01*
X16888025Y602199D01*
X16851228Y541482D01*
X16787447Y510298D01*
X16766236Y508500D01*
X634500Y508500D01*
X566379Y528502D01*
X519886Y582158D01*
X508500Y634500D01*
X508500Y32374000D01*
X528502Y32442121D01*
X582158Y32488614D01*
X634500Y32500000D01*
X5505720Y32500000D01*
X5573841Y32479998D01*
G37*
%TD.AperFunction*%
%TD*%
M02*
